<?xml version="1.0" encoding="utf-8"?>
<!-- Generator: Adobe Illustrator 19.0.0, SVG Export Plug-In . SVG Version: 6.00 Build 0)  -->
<svg version="1.1" id="Calque_1" xmlns="http://www.w3.org/2000/svg" xmlns:xlink="http://www.w3.org/1999/xlink" x="0px" y="0px"
	 viewBox="0 0 150 150" style="enable-background:new 0 0 150 150;" xml:space="preserve">
<style type="text/css">
	.st0{fill:none;stroke:#FFFFFF;stroke-width:0.5;stroke-miterlimit:10;}
</style>
<path id="XMLID_4_" class="st0" d="M70,5.8C71.3,5.2,71.5,3,70.4,2s-3.1-0.6-3.9,0.6c-0.9,1.2-0.7,3,0.3,4.1
	c-0.7-0.4-1.6,0.3-1.6,1.1s0.5,1.5,1.1,2.1s1.2,1.2,1.3,2c0.3,1.3-0.8,2.5-1.8,3.2s-2.3,1.3-3,2.5c-1,1.8-0.1,4,1.1,5.7
	s2.6,3.4,2.7,5.4c0.1,1.6-0.7,3.5,0.3,4.8c0.6,0.7,1.5,0.9,2.4,1c2.7,0.4,5.5,0.4,8.2,0.2c1-0.1,2-0.2,3,0.1
	c0.9,0.4,1.7,1.4,1.4,2.3c-1.6,0.2-3.3,0.2-4.9,0.2c-1.7,0-3.6-0.1-5.1,0.6c-1.6,0.7-2.8,2.5-2.3,4.2c0.5,1.4,2,2,3.4,2.3
	c1.4,0.2,2.9,0.1,4.3,0.5c0.7,0.2,1.5,0.7,1.7,1.4S78.8,48,78,48c-0.6,3.3-0.2,6.9,1.2,10c0.1,0.2,0.2,0.4,0.2,0.6
	c0,0.3-0.2,0.6-0.4,0.9c-1.7,2.4-1.4,5.5-1.1,8.4c0.8,8.4,1,16.8,0.6,25.2c0,0.3,0,0.7,0.2,1c0.5,0.5,1.3,0.1,2,0.4s0.8,1.2,0.6,1.8
	s-0.7,1.2-1.1,1.8c-0.8,1.5-0.5,3.3,0,4.9s1.2,3.1,1.3,4.8c0.1,1.7-0.5,3.5-2,4.2s-3.7-0.7-3.3-2.3c0.2-0.9,1-1.9,1.3-2.8
	s-0.3-2.3-1.3-2c-0.4,0.1-0.7,0.6-0.9,1c-0.7,1.5-1.4,3.2-1.2,4.8c0.2,1.7,1.5,3.3,3.2,3.3c1.1,0,2.1-0.6,3.2-0.7s2.4,0.9,2,1.8
	c-0.3,0.7-1.2,0.8-1.9,0.8c-1.7,0.1-3.5,0.2-5.2,0.4c-1,0.1-2,0.1-3,0s-1.9-0.5-2.9-0.4c-1,0-2.1,0.6-2.3,1.5
	c-0.2,0.7,0.2,1.4,0,2.1c-0.1,0.5-0.4,0.9-0.8,1.3c-1.1,1.2-2.4,2.3-3.9,3.1c-1.2,0.7-2.6,1.3-3,2.6c-0.2,0.6-0.1,1.2-0.2,1.8
	c-0.3,2.4-2.9,3.6-5.3,4.1c-0.6,0.1-1.2,0.2-1.7,0.6c-0.5,0.3-0.9,1-0.7,1.6c0.1,0.4,0.5,0.8,0.3,1.2c-0.1,0.3-0.5,0.4-0.8,0.4
	c-1.7,0.4-3.2,1.4-4.2,2.8c-0.5,0.7-0.9,1.6-0.7,2.5c0.3,1.1,1.5,1.7,2.6,2.1c9.3,3.4,19.6,3.2,29.5,2.6c1.8-0.1,4-0.5,4.4-2.2
	c0.4-1.4-0.7-2.8-2-3.3s-2.8-0.4-4.2-0.4c-5,0.2-10.1-0.3-15-1.5c-0.8-0.2-1.6-0.4-2.1-1c-0.7-0.9-0.4-2.1-0.2-3.1
	c0.3-1.2,0.8-2.5,1.9-3c1-0.4,2,0,3,0.3c4.2,1.1,8.6-0.1,13-0.5c1.2-0.1,2.6-0.2,3.6,0.5c1.9,1.2,2,3.9,2.9,5.9
	c1.4,2.8,4.8,4.8,4.8,7.9c0,0.6-0.1,1.3,0.4,1.7c0.2,0.2,0.5,0.2,0.8,0.3c4.1,0.3,8-2.6,12.1-2.5c1,0,2,0.2,2.9-0.3
	c0.5-0.3,0.9-0.9,1.2-1.4c0.6-1.3,0.9-2.8,0.4-4.1c-0.5-1.4-1.7-2.5-3.1-2.6c-0.8-0.1-1.6,0.1-2.2-0.3c-0.6-0.4-0.7-1.3-1.1-1.9
	c-0.5-0.8-1.5-1-2.4-1.4c-2.8-1.2-4.9-3.8-5.5-6.7c-0.1-0.6-0.2-1.2-0.5-1.8c-0.5-0.8-1.6-1.2-2.3-1.8c-1.2-1-1.7-2.6-2.4-4
	c-0.7-1.4-2.2-2.7-3.7-2.3c-0.6,1-0.7,2.1,0.1,3c0.8,0.9,1.8,1.7,2,2.8c0.2,1.3-0.7,2.6-1.8,3.2c-1.2,0.6-2.5,0.7-3.8,0.7
	c-1.5,0-3.1,0-4.6-0.1c-1.4-0.1-2.8-0.2-4-0.9c-1.2-0.7-2-2.1-1.7-3.4c0.3-1,1.3-1.8,1.3-2.9c0-0.9-0.6-1.7-1.1-2.4s-1.2-1.5-1-2.4
	c0.1-0.9,1.4-1.5,1.9-0.8c0.1-1.7,0.1-3.3,0.2-5c0.1-2.5,0.2-5,1.2-7.2c0.4-0.9,1-2,0.5-2.9c-0.3-0.5-0.9-0.8-1.4-1.2
	c-0.5-0.4-0.9-1.1-0.5-1.6c1.7-1.5,1.5-4.1,1.3-6.3C70.9,81.8,71,74.1,72,66.6c0.3-2.6,0.7-5.7-1.2-7.6c-0.7-0.7-1.8-1.4-1.7-2.4
	c0.2-1.4,2.4-1.5,2.8-2.9c0.1-0.5,0-0.9-0.2-1.4c-0.6-1.7-1.1-3.5-1.7-5.2c-0.1-0.2-0.2-0.5-0.1-0.7c0.1-0.4,0.5-0.6,0.9-0.7
	c1.4-0.5,2.8-0.5,4.3-0.7c1.4-0.2,2.9-0.6,3.9-1.7s1.2-2.9,0.1-3.9c1.4,0.6,3,0.5,3.9-0.7c0.7-1,0.2-2.3-0.4-3.3s-1.5-1.9-1.6-3.1
	c-0.1-1.7,1.6-3.3,1.2-5c-0.1-0.5-0.3-1,0-1.4c0.4-0.5,1.2-0.2,1.8-0.1c1.5,0.4,7.3-2.1,8.6-2.9c5.2-3.1,6.1-4.4,11.3-7.5
	c0.8-0.5,1.9-1,2.7-0.4c0.4,0.2,0.6,0.7,0.9,1c0.7,0.7,2.1,0.8,2.8,0.1c0.4-0.3,0.7-0.8,1.1-0.9c0.6-0.1,1,0.5,1.4,0.9
	c1.6,1.7,4.8,1.6,6.3-0.3s1.2-4.9-0.6-6.4c-1.1-0.9-2.5-1.4-3.9-1.7c-1.6-0.4-3.3-0.7-5-0.5c-3.3,0.5-5.8,3-8.6,4.8
	c-3.5,2.3-7.6,3.5-11.7,4.6c-1.1,0.3-2.3,0.6-3.4,0.6c-2.5,0.1-4.9-1.1-7.2-2.3c-0.3-0.1-0.6-0.3-0.7-0.6c-0.4-0.7,0.3-1.4,0.6-2
	c0.8-1.4,0.1-3.5-1.5-4.1c-0.3-0.1-0.7-0.2-1-0.4c-0.8-0.6-0.4-2-1.1-2.8c-0.5-0.7-1.5-0.7-2.3-0.4c-0.7,0.3-1.3,1-1.8,1.6
	c-0.2,0.3-0.5,0.6-0.9,0.7C70.1,6.9,70,6.1,70,5.8"/>
<path id="XMLID_3_" class="st0" d="M61.6,23.9c-1.9,0.6-3.8-0.5-5.5-1.5c-0.5-0.3-1.1-0.6-1.6-0.3c-0.7,0.4-0.3,1.5,0.1,2.3
	c-2.3,1.5-4.6,3-7.2,3.7c-1.6,0.4-3.3,0.5-5,0.8c-2.3,0.4-4.4,1.1-6.5,2c-1.7,0.8-3.3,1.9-4.2,3.5c-0.9,1.6-1,3.8,0.3,5.2
	s4,1.1,4.7-0.6c0.2-0.5,0.3-1.2,0.8-1.5c1.1-0.6,2,1.2,3.3,1.3s1.8-1.6,2.4-2.8c0.8-1.4,2.3-2.1,3.8-2.6c3.7-1.3,7.7-1.9,11.6-1.6
	c1.3,0.1,2.7,0.3,4-0.1c1.3-0.4,2.5-1.5,2.4-2.9c0-0.3-0.1-0.6-0.4-0.8c-0.2-0.1-0.4-0.2-0.6-0.2c-2.4-0.3-4.6,1.4-6.9,2.2
	c-0.4,0.1-0.9,0.2-1.3,0.1c-0.4-0.1-0.8-0.6-0.7-1"/>
<path id="XMLID_5_" class="st0" d="M16.8,111.2c-3.7,0.4-7.3,1.7-10.3,3.8c-0.2,0.2-0.5,0.3-0.5,0.6c-0.1,0.5,0.4,1.9,0.8,2.2
	c4.9,3,9.8,5.1,15.3,6.8c5.5,1.7,11.2,1.9,16.9,2.1c4.2,0.1,8.6,0.2,12.5-1.6c1.6-0.7,6-3.1,5.8-4c-0.3-0.9-6.7,0.3-8.4,1.1
	c-1.2,0.5-2.3,1.2-3.6,1.7c-1.2,0.4-2.7,0.6-3.8-0.1c-0.4-0.2-0.7-0.5-1.1-0.7c-1.6-0.9-3.5-0.5-5.3-0.2s-13.4-0.8-14.1-2.5
	c-0.8-1.7,12.6,0.3,14.6,0.4c5.5,0,11.1-0.1,16.6-0.4c3.1-0.2,6.3-0.4,9.1-1.8c0.8-0.4,1.6-1,1.6-1.9c0-0.8-0.8-1.3-1.4-1.7
	c-4.3-2.4-7.7-2.9-12.6-3.3c-2.8-0.3-8.3-0.5-11.6-0.7C31.8,110.9,22.4,110.6,16.8,111.2"/>
<path id="XMLID_6_" class="st0" d="M98.1,90.6c-3.7,0.4-7.3,1.7-10.3,3.8c-0.2,0.2-0.5,0.3-0.5,0.6c-0.1,0.5,0.4,1.9,0.8,2.2
	c4.9,3,9.8,5.1,15.3,6.8c5.5,1.7,11.2,1.9,16.9,2.1c4.2,0.1,8.6,0.2,12.5-1.6c1.6-0.7,6-3.1,5.8-4s-6.7,0.3-8.4,1.1
	c-1.2,0.5-2.3,1.2-3.6,1.7c-1.2,0.4-2.7,0.6-3.8-0.1c-0.4-0.2-0.7-0.5-1.1-0.7c-1.6-0.9-3.5-0.5-5.3-0.2s-3.9,0.5-5.2-0.8
	c1.5-1.3,3.7-1.4,5.7-1.3c5.5,0,11.1-0.1,16.6-0.4c3.1-0.2,6.3-0.4,9.1-1.8c0.8-0.4,1.6-1,1.6-1.9c0-0.8-0.8-1.3-1.4-1.7
	c-4.3-2.4-7.7-2.9-12.6-3.3c-2.8-0.3-8.3-0.5-11.6-0.7C113.1,90.3,103.7,89.9,98.1,90.6"/>
<polyline id="XMLID_7_" class="st0" points="18.5,110.8 34.1,40.4 59.4,114.1 "/>
<line id="XMLID_8_" class="st0" x1="23.7" y1="119.7" x2="34.1" y2="40.4"/>
<polyline id="XMLID_2_" class="st0" points="112.9,98.2 115.7,17.1 140,93.2 "/>
<line id="XMLID_10_" class="st0" x1="91.1" y1="92.6" x2="115.7" y2="17.1"/>
</svg>
