<?xml version="1.0" encoding="utf-8"?>
<!-- Generator: Adobe Illustrator 19.0.0, SVG Export Plug-In . SVG Version: 6.00 Build 0)  -->
<svg version="1.1" id="Calque_1" xmlns="http://www.w3.org/2000/svg" xmlns:xlink="http://www.w3.org/1999/xlink" x="0px" y="0px"
	 viewBox="0 0 150 150" style="enable-background:new 0 0 150 150;" xml:space="preserve">
<style type="text/css">
	.st0{fill:none;stroke:#FFFFFF;stroke-width:0.5;stroke-miterlimit:10;}
	.st1{fill:none;stroke:#FFFFFF;stroke-width:0.5;stroke-linecap:round;stroke-linejoin:round;stroke-miterlimit:10;}
</style>
<path id="XMLID_5_" class="st0" d="M57.3,35.7c-0.3-0.1-0.6-0.6-0.8-0.8c-0.2-0.3-0.5-0.5-0.8-0.3c0,0.4,0.3,0.7,0.6,0.8
	c0.2,0,0.3,0,0.5,0.1c0.5,0.1,1,0.3,1.4,0.7c0.6,0.5,1,1.1,1,1.8c0,0.3-0.1,0.5-0.2,0.7c-0.4,0.7-1.2,0.6-1.8,0.4
	c-0.5-0.1-0.8-0.2-1.3-0.2c-0.4,0-0.6,0-0.9-0.2c-0.1-0.1,0.3-0.2,0.6-0.2c0.3,0.1,0.6,0.2,0.9,0c0.2-0.1,0.2-0.3,0.2-0.5
	c-0.1-0.2-0.2-0.2-0.3-0.2c-0.6,0-1.3,0.3-1.6,0.7c-0.2,0.3-0.1,0.5-0.2,0.8c-0.5,0.6-1.2,0.6-2,0.6l-0.2,1
	c-0.4,0.1-0.8-0.3-0.9-0.7c-0.1-0.4,0-0.9,0.2-1.2c0-0.3,0.7,0.7,1.9,0.9c-0.2,0.3-0.2,0.6-0.1,0.9c2.1-0.5,4.4-0.1,6.2,1
	c0.3,0.2,0.5,0.4,0.6,0.7c-1.5-0.7-3-1.2-4.6-1.6c-0.3-0.1-0.8-0.1-1,0.2c-0.1,0.1-0.1,0.3-0.2,0.5c-0.4,0.4-1-0.3-1.5-0.2
	c-0.1,0-0.2,0.2-0.3,0.3c-1.4,1.6-1.8,4-1,6c0.2,0.1,0.3-0.1,0.4-0.2c0.1-0.2,0-0.3,0-0.5c0-1.3,0.9-2.6,2.2-3
	c0.3-0.1,0.7-0.1,1-0.4c0.1-0.1,0.2-0.3,0.4-0.3c0.2-0.1,0.5,0,0.8,0.1c1.5,0.5,3.4-0.2,4.6,0.7c0.2,0.1,0.4,0.4,0.2,0.6
	c-0.1,0.2-0.3,0.2-0.5,0.2c-0.7-0.2-1.4,0.2-2.1,0.5c-2,1-4,2.1-6.1,3.1c-0.6,0.3-1.1,0.6-1.2,1.3c0,0.1,0,0.3,0,0.4
	c0.1,0.1,0.3,0.1,0.4,0.1c0.8-0.1,1.1-1,1.6-1.6c0.6-0.7,1.5-1.1,2.4-1.3c0.9-0.2,1.9-0.2,2.8-0.2c0.3,0,0.5,0,0.8,0.1
	c0.3,0.2,0.6,0.6,0.2,0.9c-0.1,0.1-0.3,0.2-0.5,0.2c-0.9,0-1.8-0.2-2.8-0.1c-1.9,0.3-3.4,2.1-3.4,4c0,0.9,0.5,1.9,1.4,2
	c0.3,0,0.7-0.1,1-0.2c2.9-0.9,5.9-1,8.9-1.4c3-0.4,6-1,8.5-2.8c1.1-0.8,2.1-1.8,3.2-2.5c0.3-0.2,0.6-0.3,0.9-0.4
	c0.7-0.1,1.4,0.5,1.6,1.2c0.2,0.7,0,1.5-0.4,2.1c-0.5,0.8-1.4,1.4-2.1,2c-1.2,1-2.5,1.8-3.9,2.5c-2.8,1.2-5.7,2.5-8.3,4.1
	c-1,0.6-2,1.3-3.1,1.7C59.3,60.8,58,60.7,57,60c-0.5-0.4-0.5-0.8-1-1.1c-0.7-0.5-1.5-0.9-2.2-1.4c-0.8-0.6-1.5-1.1-2.1-1.9
	c-0.8-0.9-1.2-2.1-1.6-3.2c-1-2.8-2-5.7-2.9-8.6c-0.2-0.5-0.3-1.1-0.2-1.6c0-1.3,0.4-2.7,0.4-4c0-0.9-0.7-1.9-1-2.7
	c-0.2-0.4-0.3-0.8-0.4-1.3c-0.1-0.5,0-1,0.1-1.6c0.5-2.7,0.1-5.6,1.6-7.9c0.2-0.3,0.4-0.7,0.6-1c0.1-0.1,0.1-0.2,0.2-0.3
	c0-0.1,0-0.2,0-0.3c0-0.2,0.1-0.4,0.1-0.6c0.1-0.6,0.2-1.2,0.4-1.8l0.4,0.1l0-1.7c0.2,0.4,0.5,0.8,0.8,1c-0.2-1-0.2-2-0.1-3
	c0.4,0.4,0.6,1.1,0.5,1.7l0.5,0l0.1-2.7c0.3,0.4,0.5,0.9,0.5,1.5c0,0.3,0.2,0.7,0.4,0.6c-0.4-0.8-0.4-1.7-0.1-2.5
	c0.3,0.3,0.4,0.7,0.5,1.1c0.1,0.4,0.5,0.8,0.9,0.7c-0.2-0.7-0.5-1.3-0.7-2c-0.1-0.2-0.1-0.3-0.1-0.5c0-0.2,0.2-0.3,0.4-0.2
	c0.1,0,0.1,0.2,0.2,0.3l0.7,1.7c0.1,0.1,0.2,0.2,0.4,0.2c0.2,0,0.2-0.2,0.3-0.4c0-1-0.3-2.2,0.3-3.1c0.2-0.1,0.4,0,0.5,0.2
	c0.1,0.2,0.1,0.4,0.1,0.6c0,0.8,0.2,1.5,0.6,2.2c0.3,0,0.3-0.4,0.2-0.7c-0.2-0.7-0.3-1.5-0.2-2.2c0.1-0.4,0.4-0.9,0.7-0.7
	c0,1,0,2.1,0.1,3.1c0,0.3,0.2,0.7,0.5,0.6c-0.2-1.3-0.2-2.6,0.2-3.8c0.1-0.2,0.2-0.5,0.5-0.4c0.2,0.1,0.3,0.3,0.2,0.5
	c-0.4,1-0.4,2.1,0,3c0,0.1,0.1,0.2,0.2,0.2c0.2,0,0.3-0.2,0.2-0.3c-0.2-1.1,0-2.3,0.5-3.3c0.2,0,0.4,0,0.6,0.1
	c0,0.6-0.4,1.1-0.7,1.7c-0.3,0.5-0.4,1.2-0.1,1.7c0.1-1.3,0.6-2.5,1.4-3.5c0.1-0.1,0.2-0.3,0.4-0.3c0.2-0.1,0.4,0,0.4,0.2
	c0.1,0.2-0.1,0.4-0.2,0.5c-0.9,0.8-1.8,1.9-1.6,3.1c0.1,0,0.2,0,0.4,0c0.1-1.1,0.9-1.9,1.6-2.6c0.4-0.4,0.8-0.7,1.3-0.9
	c0.5-0.2,1.1-0.2,1.5,0.1c-1.5,0.4-2.8,1.2-3.7,2.4c-0.1,0.1-0.2,0.3-0.2,0.5c0,0.2,0.2,0.4,0.4,0.3c0.4-1.2,1.2-2.3,2.1-3.1
	c0.4-0.3,1-0.6,1.3-0.1c-1,0.4-1.8,1.2-2.2,2.3c-0.1,0.3-0.1,0.7,0.3,0.7c0.2,0,0.3-0.1,0.3-0.3c0.2-1,0.8-1.8,1.6-2.4
	c0.5-0.3,1.2-0.5,1.6-0.1c-0.7,0.2-1.4,0.5-1.9,1c-0.5,0.5-0.9,1.2-0.7,1.9c0.4-0.2,0.6-0.8,0.8-1.2c0.7-1.3,2.4-1.9,3.6-1.3
	c-0.4,0.4-1.1,0.4-1.6,0.5c-1.1,0.2-2.2,1-2,2.1c0.6-0.9,1.5-1.6,2.6-2c0.7-0.3,1.6-0.3,1.9,0.3c-1.1,0.1-2.1,0.5-3,1.1
	c-0.2,0.1-0.3,0.2-0.4,0.4s0,0.4,0.1,0.5c0.9-0.9,2.2-1.4,3.5-1.3c0.4,0,0.9,0.3,0.8,0.7c-1.3,0-2.5,0.3-3.7,0.9
	c-0.2,0.1-0.4,0.4-0.2,0.5c1.3-0.8,2.9-1.1,4.3-0.8c0.2,0,0.5,0.2,0.4,0.4c-0.8,0-1.7,0.2-2.4,0.6c-0.2,0.1-0.4,0.4-0.2,0.4
	c0.9-0.5,1.9-0.6,2.9-0.5c0.3,0,0.6,0.1,0.8,0.3c0.2,0.2,0.3,0.5,0.2,0.8c-0.9-0.3-1.9-0.2-2.7,0.3c-0.1,0.1,0,0.3,0.1,0.3
	c0.8-0.2,1.7-0.1,2.5,0.1c0.6,0.2,1.3,0.3,1.8,0.7c0.5,0.4,0.9,1.1,0.7,1.7c-0.9-0.5-2-0.7-3.1-0.6c-0.1,0.2,0.1,0.3,0.3,0.4
	c0.7,0.2,1.4,0.2,2.1,0.4c0.7,0.2,1.4,0.6,1.5,1.3c-0.7-0.4-1.6-0.6-2.4-0.5c-0.3,0-0.6,0.2-0.6,0.5c0,0.2,0.3,0.3,0.5,0.3
	c1.2-0.1,2.4,0.2,3.4,0.8c-1-0.3-2-0.2-3,0.2l0.3,0.4c0.6-0.4,1.2-0.6,1.9-0.6c0.3,0,0.6,0.1,0.8,0.3c0.2,0.2,0.3,0.5,0.2,0.8
	c-0.9-0.3-1.9-0.2-2.7,0.2c0,0.2,0,0.5,0.1,0.7c0.9-0.5,2-0.4,2.9,0c0.4,0.2,0.8,0.6,0.8,1c-1.1-0.7-2.7-0.9-3.9-0.3
	c0,0.2,0.2,0.5,0.4,0.5c1-0.1,2.1,0.5,3,0.9c0.9,0.4,1.9,0.8,1.5,1.7c-0.7-0.3-1.1-0.7-1.8-1c-0.5-0.2-1.9-0.3-2.3,0.1
	c0.6,0.3,1.3,0.4,2,0.5c0.7,0.1,1.5,0.6,1.5,1.3c-0.5-0.3-1-0.5-1.6-0.7c-0.2,0-0.4-0.1-0.4,0.1c-0.1,0.2,0.2,0.3,0.4,0.4
	c0.7,0.2,1.3,0.6,1.9,1.1c0.1,0.1,0.1,0.1,0.1,0.2c0.1,0.3-0.4,0.4-0.7,0.2c-0.3-0.2-0.6-0.4-0.8-0.2c0.4,0.3,0.8,0.6,1.2,1
	c0.2,0.1,0.4,0.3,0.4,0.5c0,0.2-0.2,0.5-0.4,0.4c1,1.3,1.8,2.8,2.1,4.4c0.4,2.6,0.3,5.3,0.1,7.9c-0.1,2.2-0.3,4.5-0.1,6.7
	c0.1,2.1,1.2,5.2,2.2,7c1.1,1.8,2.2,4,3,5.8c0.9,2.1,0.7,5-1.3,6.1c-0.6,0.4-1.6,0.9-1.2,1.5c0.2,0.3,0.5,0.5,0.9,0.4
	c1.8-0.3,3.3,1.1,4.1,2.6c0.2,0.3,0.4,0.6,0.7,0.6c0.2,0,0.3-0.1,0.5-0.1c1.3-0.7,2.3-1.7,3.1-2.9c0.3-0.5,0.7-0.9,1.3-1.1
	c4.9-1.8,10.9-0.4,14.5,3.5c1.2,1.3,2.1,3.3,0.1,4.5c-0.3,0.2-0.6,0.3-0.9,0.4c-5.5,1.6-10.5,5.1-13.7,9.8
	c-2.3,3.3-3.7,7.1-6.4,10.1c-2.1,2.3-4.8,3.9-6.6,6.3c-2.1,2.9-2.8,6.6-3.4,10.1c-0.1,0.8-0.3,1.6-0.9,2.1c-0.3,0.3-0.7,0.4-1.1,0.2
	c-0.6-0.2-0.8-0.9-1-1.4c-0.8-2.8-2.6-5.3-5-6.9c0.8,4.4,1.5,9.2-0.5,13.2c-0.5,1.1-1.4,2.1-2.6,2.4c-0.5,0.1-1.1,0-1.5-0.3
	c-0.9-0.6-0.9-1.5-0.8-2.3c0.1-1.8,0.3-3.5,0.5-5.3c0.4,0.6,0.8,1.2,1,1.9c1.1-3.4,0.9-7.3-0.6-10.5c-1.3-0.1-1.6,1.8-1.5,3.2
	c0.3,5.3-0.9,10.6-2.1,15.7c-0.1,0.2-0.1,0.5-0.2,0.7c-1.1,2-3.7,0.9-5.1-0.5c-2-2-3.5-4.5-5.5-6.6c-2-2.1-4.7-3.7-7.5-3.5
	c0.5,2.7,2.5,4.7,4.3,6.7c1.8,2,3.5,4.5,3,7.2l-10.4-11.2c1.7,2.5,3.5,5,5.2,7.6c0.8,1.2,1.7,2.9,0.9,4.1c-1.9-2.4-3.5-4.9-4.9-7.6
	c0.5,2.9,4.1,5.1,3.4,8c-3-5.4-6.1-10.8-9.1-16.3c-0.7-1.3-1.5-2.6-1.7-4.1c-0.3-2,0.5-3.7,1.3-5.6c-1.4-5.4-0.3-11.4,3-15.8
	c0.2-0.2,0.5-0.5,0.8-0.3c0.1,0.1,0.2,0.3,0.1,0.5c-0.5,1.5,0.4,3,1,4.4c0.6,1.3,0.9,3.1-0.2,4c-0.3,0.2-0.6,0.4-0.8,0.7
	c-0.2,0.4,0,0.9,0.2,1.3c2,3.6,6,5.5,8.8,8.5c1.2,1.3,2.2,2.7,3.4,4c0.9,0.8,1.8,1.6,2.7,2.4c1.7,1.7,3,3.8,4.2,5.9
	c0.1,0.1,0.2,0.3,0.4,0.3c0.3,0,0.4-0.2,0.6-0.5c1.3-2.9,2.3-7.9,2.7-10.2c0.3-3.8,1.1-7.6,2.9-11.1c1.8-3.4,4.5-6.4,7.8-8.3
	c2.3-1.3,4.9-2.1,7.2-3.5c1.5-0.9,2.8-2.1,4.1-3.2c1.9-1.7,3.8-3.3,5.7-5c1.7-1.5,3.4-3,4.9-4.5c1.4-1.4,2.8-3,4.6-3.9
	c1.4-0.7,3.1-0.7,4.6-0.2c1.8,0.6,3.3,1.9,4.5,3.4c0.5,0.7,1,1.4,1.3,2.2c0.8,2.1,0,4.6-1.3,6.4c-3.8,5.3-11.3,6.8-15.4,11.8
	c-0.9,1.1-1.6,2.4-1.6,3.8c3.7-3.3,7.8-6.2,12.2-8.6c1.9-1.1,3.9-2,5.6-3.4c1.7-1.4,3-3.4,3.2-5.5c0.1-0.8-0.1-1.7-0.7-2.3
	c-0.6-0.5-1.5-0.5-2.2-0.3c-3.2,0.9-4.5,4.6-6.8,7c-1,1-2.1,1.8-3.2,2.7c-3.9,3.2-6.9,7.6-9.5,11.9c-2,3.3-4,6.8-4.7,10.6
	c-0.4,1.8-0.5,3.6-0.5,5.4c-0.2,4.1-0.2,8.3,0.6,12.4c0.1,0.3,0.1,0.6,0.4,0.9c0.3,0.4,1.6,1.3,2.1,1.5c1.9,0.5,4.6,0.1,6.2-0.6
	c0.8-0.3,2.3-1.6,1.6-2l-10.4,0.6l-53.2,11.8v-4.7l53.6-13.2l11.7,4.8c0.3,0.2,0.6,0.2,0.9-0.1c-0.3-1.4-1.4-2.4-2.6-3.1
	s-2.5-1.3-3.5-2.2c-1.8-1.8-2.2-4.5-2.4-7c-0.5-5.8-0.4-12.3,3.5-16.7"/>
<path id="XMLID_2_" class="st0" d="M48.4,36.1c0.1-0.8,0.2-1.7,0.9-2.2c0.9-0.6,2.1-0.2,3.1,0.3c0,0.7-0.6,1.3-1.2,1.7
	c-0.9,0.7-2,1.1-3.1,1.3c0-0.6,0.1-1.2,0.4-1.7c-0.4,0.3-1,0.4-1.5,0.3c0.3,0,0.6-0.1,0.8-0.3c0.2-0.2,0.3-0.6,0.1-0.7
	c0.2-0.1,0.4-0.2,0.5-0.2c-0.1-0.1-0.3-0.2-0.4-0.3c0.1-0.1,0.3-0.2,0.4-0.2c-0.1-0.1-0.1-0.3-0.1-0.4c0.2,0,0.3,0,0.5,0
	c-0.1-0.2,0.1-0.5,0.3-0.6c0.2-0.1,0.5-0.1,0.7,0c0.6,0.1,1.2,0.2,1.7,0.5c0.4,0.1,0.7,0.3,1.1,0.2c0.4-0.1,0.7-0.5,0.5-0.8
	c-0.9-0.8-2.1-1.1-3.3-0.8c-1.1,0.3-2.1,1.2-2.5,2.3c-0.2,0-0.5-0.2-0.6-0.4c-0.1-0.2-0.1-0.5-0.1-0.7c0-0.6,0.1-1.3,0.4-1.9
	c0.3-0.6,0.9-1,1.5-1c-0.1-0.2-0.3-0.3-0.4-0.3c0.4-0.3,0.9-0.4,1.4-0.3c0.2,0.1,0.5,0.2,0.6,0c0.2-0.3-0.7-0.6-0.4-0.9
	c0.7-0.1,1.4,0.6,1.3,1.3c0.6,0.2,1.2,0.4,1.8,0.8c0.5,0.4,0.9,1,1,1.6c0,0.7-0.4,1.3-0.8,1.8c-0.4,0.5-0.9,0.9-1.3,1.2
	c-0.2,0.2-0.5,0.4-0.6,0.6c-0.4,0.6-0.2,1.4,0.1,2.2C51,38.7,51,39.1,51,39.5c0,0.4,0,0.8,0.2,1.1c0.1,0.2,0.3,0.4,0.6,0.5
	c0.1,0,0.2,0.1,0.3,0c0.1,0,0.2-0.1,0.2-0.2"/>
<path id="XMLID_6_" class="st0" d="M67.8,30.9c-0.1-0.4-0.6-0.4-1-0.4c-1.5,0.2-2.8,1.2-4.3,1.5c-0.9,0.2-1.8,0.1-2.6,0.5
	c-0.4,0.2-0.7,0.4-1.1,0.3c-0.1-0.1,0-0.3,0.1-0.4c0.1-0.1,0.3-0.1,0.4-0.2c0.2-0.2,0.3-0.5,0.4-0.7c0.4-1.1,1.4-2.1,2.5-2.4
	c0.3-0.1,0.6,0,0.7,0.2c0.6-0.2,1.1-0.4,1.7-0.5c-0.1,0.1-0.2,0.3-0.2,0.4c0.4,0,0.8-0.1,1.1-0.1c-0.1,0.2-0.2,0.4-0.3,0.5
	c0.4,0,0.7-0.1,1.1-0.1c-0.1,0.2-0.2,0.3-0.3,0.5c0.8,0.2,1.8,0.1,2.5-0.4c-1.2,0-2.2-0.9-3.3-1.4c-1-0.5-2.2-0.7-3.3-0.4
	s-2.1,1.1-2.4,2.1c-0.2,0.5-0.2,1.1-0.4,1.6c-0.1,0.3-0.2,0.5-0.5,0.6c-0.3,0.1-0.6-0.1-0.6-0.4c0-0.3,0.2-0.6,0.5-0.5
	c0.1,0,0.2,0,0.2-0.1c0-0.1-0.2,0-0.1,0c0.3-0.1,0.1-0.6-0.2-0.8c-0.3-0.2-0.6-0.1-1-0.1c-0.3,0-0.7-0.1-0.9-0.4
	c-0.1-0.2-0.1-0.4,0-0.6c0.2-1.1,1.6-2.9,1.8-2.8c0.2,0.2-0.5,1-0.3,1.1c0.2,0.1,2-2.2,2.2-2.1c0.2,0.1-0.7,0.9-0.5,1.1
	c0.2,0.2,1.3-1.3,2.2-1.5c0.2-0.1,0.5-0.1,0.8-0.1c0.4,0,0.8,0,1.2,0c1.5,0,3.1,0,4.2,0.9"/>
<path id="XMLID_8_" class="st0" d="M61.8,69.4c-0.3-0.7-0.5-1.3-0.8-2c-0.1-0.2-0.2-0.4-0.3-0.4c-0.2,0.7,0,1.5,0.3,2.3
	s0.7,1.4,0.8,2.2c0.1,0.6,0.1,1.3,0.2,1.9c0.1,0.8,0.5,1.6,0.4,2.4c-0.1,1-0.7,1.9-0.8,2.9c0,0.2,0,0.3,0.1,0.4
	c0.3,0.3,0.8,0.1,1-0.2c0.4-0.4,0.7-0.8,1-1.3c0.1-0.3,0.3-0.5,0.5-0.7c0.8-0.7,2.1-0.2,2.9-0.8c0.7-0.5,0.6-1.5,0.4-2.4
	c-0.1-0.8-0.3-1.8,0.3-2.4c0.2-0.2,0.5-0.3,0.8-0.2c0.2,0.1,0.3,0.3,0.4,0.5c0.5,1.2,0.7,2.6,0.4,3.9c-0.1,0.2-0.1,0.5-0.1,0.7
	s0.2,0.5,0.4,0.5c0.2,0.1,0.4,0,0.6-0.1c1.1-0.6,1.8-1.7,3-2.2c1.5-0.6,3.1,0.2,4.7,0.5c1.3,0.3,2.7,0.2,4,0.1
	c0.7-0.1,1.5-0.3,1.8-0.9"/>
<path id="XMLID_7_" class="st1" d="M61.8,93.8c-0.6,0.8-1,1.7-1.1,2.7c0,0.1,0,0.2,0.1,0.3c0.1,0.1,0.2,0.1,0.3,0
	c0.5-0.1,0.9-0.7,1.2-1.1c1.5-2.1,3.5-3.9,5.9-5s5.2-1.3,7.7-0.6c1.3,0.4,2.7,1,4,0.8c1-0.2,1.8-0.8,2.3-1.7
	c0.1-0.3,0.3-0.6,0.3-0.9c0-0.6-0.3-1.2-0.8-1.6c-0.5-0.4-1.1-0.7-1.6-0.8c-2.2-0.7-4.6-0.5-6.9,0.1c-2.2,0.6-4.3,1.6-6.4,2.6
	c-0.6,0.3-1.3,0.6-1.8,1.1c-2,1.7-3.8,3.9-4.8,6.3c-0.5,1.2-0.8,2.5-1.2,3.8c-0.2,0.6-0.3,1.1-0.4,1.7c-0.1,0.9,0,1.9,0.1,2.8
	c0.2,1.5,0.4,3.1,1.1,4.4c0.3,0.6,0.7,1.2,1,1.8c0.8,1.8,0.4,3.9,0,5.8c-0.4,1.7-0.7,3.4-1.1,5.1c-0.4,1.7-0.8,3.5-1.9,4.9
	c-0.1,0.1-0.1,0.1-0.2,0.1c-0.1,0-0.1-0.1-0.1-0.1c-0.5-0.5-1-1.1-1.5-1.6c-0.8-0.8-1.6-1.7-2.3-2.5c-0.9-0.9-1.7-1.9-2.4-3
	c-0.2-0.3-0.4-0.7-0.2-1.1c0.1-0.2,0.4-0.4,0.6-0.5c0.8-0.4,1.6-1.2,2.2-2c0.5-0.8,1.1-1.7,1.6-2.5c0.6-0.8,1.1-1.7,1.5-2.6
	c0.3-0.6,0.5-1.2,0.7-1.9c0.2-0.8,0.4-1.5,0.5-2.3c0.5-3.9-0.3-7.9-2.3-11.2c-0.6-1-1.3-1.9-2.3-2.3c-0.4-0.2-0.8-0.2-1.3-0.3
	c-0.7-0.1-1.4-0.1-2.1,0c-1,0.2-1.8,0.7-2.7,1.2c-2.1,1.2-4.2,2.4-5.9,4.1c-0.6,0.6-1.2,1.3-1.8,1.9c-2,1.9-3.9,4-5.6,6.2
	c-0.3-1,0.5-1.9,1.2-2.6c1.3-1.3,2.7-2.6,4-3.9c0.5-0.4,0.9-0.9,1.3-1.4c0.4-0.6,0.7-1.3,1.1-2c1.4-3,3.8-5.3,6.1-7.7
	c0.2-0.2-0.4-0.3-0.6-0.3c-1.6,0.1-3,0.8-4.2,1.8c-1.2,0.9-2.4,2-3.7,2.8c-0.4,0.3-1.2,0.5-1.4,0c-0.2-0.4,0.1-0.8,0.5-1.1
	c1.7-1.5,3.4-3.1,5.5-3.9c1.2-0.4,2.4-0.6,3.6-1.1c1.3-0.6,2.5-1.6,3.7-2.4c1.9-1.3,4.1-2.2,5.6-4c1.1-1.3,1.7-2.9,2.3-4.5
	c0.2-0.6,0.5-1.3,0.6-2c0.1-1-0.1-2-0.3-3c-0.6-2.9-1.4-5.7-2.1-8.5c-0.3-1-0.5-1.9-0.9-2.8c-0.4-0.1-0.6,0.5-0.6,0.9
	c0.1,2,1.3,3.9,1.2,5.9c-0.1,1.1-0.5,2.1-0.8,3.1c-0.8,3.1-0.2,6.4,0.3,9.6c0.1,0.5,0.2,1.1,0.1,1.6c-0.2,1-0.9,1.9-1.7,2.5
	c-0.8,0.6-1.7,1.1-2.6,1.6c-1.1,0.6-2.3,1.3-3.4,1.9c-0.6,0.3-1.1,0.6-1.8,0.6c-0.2-1-0.1-1.9,0.2-2.9c0.2-0.5,0.4-1,0.6-1.5
	c1-2.7,0.2-5.6-0.3-8.4c-0.4-2.2-0.5-4.4-0.4-6.7c0.1-1.9-0.4-3.9,0-5.7c0.1-0.8,0.3-1.5,0.3-2.3c0-0.4,1.2-5.7,0.9-7.1
	c-0.1-0.6,0.1-1.7-0.1-2.3c-1.3-3.4-1.6-7-2-10.6C45.5,34.3,45,29,46.4,23.9c0.3-1.2,0.7-2.3,1.2-3.4c0.4-1,1-1.9,1.6-2.8
	c0.9-1.4,1.9-2.9,3.2-4c1.8-1.5,4.1-2.4,6.4-2.7c2.3-0.3,4.7-0.2,7,0.2c0-0.3-0.3-0.5-0.5-0.6c-2.3-0.8-4.9,0.2-7.3,0.6
	c-0.5,0.1-1.3,0-1.3-0.5c0-0.2,0.1-0.4,0.2-0.6c1-1.6,2.7-2.8,4.5-3.5s3.8-0.9,5.8-0.8c1.2,0,2.5,0.1,3.7,0.5
	c1.7,0.5,3.2,1.4,4.7,2.3c1,0.6,2,1.2,2.8,2.1c1.2,1.5,1.4,3.5,2.5,5c0.5,0.7,1.4,2.2,1.2,2.3c-0.3,0.1-0.9-0.5-1.3-0.9
	c-0.9-0.9-3.2-1.6-3.3-2c-0.1-0.3,1-0.2,1.5-0.1c1.8,0.4,3.7,1.7,5.1,3c2.4,2.2,3,3.7,2.4,4.1c-0.1,0.1-0.6-0.9-0.8-1
	c-0.2-0.1-0.2,1.1,0,1.5c0.2,0.5,0.6,0.9,1,1.3c0.2,0.2,0.4,0.4,0.7,0.5c0.3,0.1,0.6,0.1,0.8-0.2c0.2-0.3,0.2-0.7,0.1-1
	c-0.5-1.8-2.2-3.2-4-3.5c-0.1,0-0.2,0-0.3,0c-0.1,0.1-0.1,0.2-0.1,0.4c0,0.6-0.1,1.2,0.1,1.8c0.2,0.6,0.5,1.2,0.9,1.7
	c0.5,0.7,1,1.4,1.6,2c0.7,0.6,1.5,0.9,2.4,0.8c0.1,0,0.2,0,0.3-0.1c0.2-0.1,0.2-0.4,0.2-0.6c-0.1-0.7-0.7-2.1-0.5-2.1
	c0.3-0.1,0.8,1.9,1.1,3.8c0.1,0.6,0.1,1.3-0.3,1.7c-0.2,0.2-0.6,0.3-0.9,0.3c-1.3,0-2.6-0.7-3.6-1.5c-1.4-1-2.9-3.1-3.4-3.8
	c-0.7-1.1-1.3-2.8-1-4.8c0.1-0.5,0.8-1,1.2-1.3c0.7-0.4,1.6-0.1,2.4,0.2c0.7,0.3,1.4,0.6,1.9,1.1c0.8,0.7,1.4,1.6,1.9,2.5
	c0.4,0.6,1.1,2.2,1.5,3.5c0.4,1.3,0.6,3,0.6,3c0.8,2,1.4,4,1.4,6.1c0,2.3,0.6,4.5,0.5,6.9c0,2.1-0.4,4.2-0.7,6.3
	c-0.2,1.3-0.4,2.6-0.7,3.9C90,54.4,89,57,87.7,59.5c-0.3,0.5-0.6,1-0.5,1.6c0,0.5,0.2,0.9,0.4,1.3c0.7,1.4,1.4,2.7,2.1,4.1
	c0.5,1,1,1.9,1.2,3c0.1,0.5,0.1,1,0.3,1.5c0.2,0.5,0.6,0.9,1.1,0.9c0.2-0.6,0-1.2-0.2-1.8c-1.7-4-3.9-7.8-6.7-11.3
	c-0.4-0.5-0.8-1-1.2-1.6c-0.3-0.5-0.5-1.1-0.7-1.6c-0.4-1-0.6-1.9-0.8-2.9c-0.3-1.4-0.4-2.8-0.6-4.2c-0.3-2.4-0.5-4.8-0.8-7.1
	c-0.2-1.7-0.7-3.3-1.2-4.9c-0.3-0.8-0.6-1.5-0.7-2.3c-0.1-0.6-0.2-1.3-0.3-1.9c-0.1-0.7-0.3-1.3-0.4-2c-0.3-1.2-0.6-2.4-0.9-3.7
	c-0.1-0.4-0.2-0.8-0.3-1.2c-1-3.7-3.1-7.1-6-9.6c-1.1-0.9-1.7-2.1-2.9-2.8c-1.6-0.9-3.4-1.2-5.2-1.3c-1.8,0-3.6,0.2-5.4,0.5
	c-0.7,0.1-1.4,0.2-2.1,0.4"/>
</svg>
