<?xml version="1.0" encoding="utf-8"?>
<!-- Generator: Adobe Illustrator 19.0.0, SVG Export Plug-In . SVG Version: 6.00 Build 0)  -->
<svg version="1.1" id="Calque_1" xmlns="http://www.w3.org/2000/svg" xmlns:xlink="http://www.w3.org/1999/xlink" x="0px" y="0px"
	 viewBox="0 0 150 150" style="enable-background:new 0 0 150 150;" xml:space="preserve">
<style type="text/css">
	.st0{fill:none;stroke:#FFFFFF;stroke-width:0.5;stroke-linecap:round;stroke-linejoin:round;stroke-miterlimit:10;}
</style>
<line id="XMLID_17_" class="st0" x1="73" y1="72.8" x2="73" y2="33.5"/>
<line id="XMLID_16_" class="st0" x1="72.9" y1="108.8" x2="72.9" y2="86.2"/>
<line id="XMLID_15_" class="st0" x1="72.9" y1="138.4" x2="72.9" y2="114.2"/>
<polyline id="XMLID_14_" class="st0" points="73.4,141.7 73.4,143.2 72.9,142.9 72.9,141.6 "/>
<line id="XMLID_13_" class="st0" x1="73.6" y1="114.2" x2="73.4" y2="138.4"/>
<path id="XMLID_12_" class="st0" d="M71.7,73.5l-0.2-40c0.3-0.4,0.6-0.8,1-1c1-0.6,1.9-1.3,2.8-2.1c-0.6,0-1.2,0.3-1.6,0.7
	c-0.5,0.4-0.9,0.8-1.5,1c-0.2-0.2,0-0.4,0.2-0.6c0.7-0.6,1.5-1.2,2.2-1.8c0.3-0.2,0.6-0.5,0.6-0.9c-1.1-0.1-1.9,1.3-3,1.3
	c0,0-0.1,0-0.1,0c-0.1,0,0-0.1,0-0.2c0.7-0.9,1.5-1.7,2.4-2.4c0.1,0.7,0,1.4-0.2,2.1C74.2,30.7,74,31.8,74,33l-0.2,39.5"/>
<line id="XMLID_11_" class="st0" x1="71.9" y1="109.4" x2="71.8" y2="86.6"/>
<line id="XMLID_10_" class="st0" x1="72" y1="138.3" x2="71.9" y2="114.6"/>
<path id="XMLID_9_" class="st0" d="M75.3,142c0,0.9,0.1,2.1-1.5,2.4s-1.7-2.1-1.7-2.1l0-0.9"/>
<path id="XMLID_8_" class="st0" d="M75.6,113.6c-0.1,11.2-0.3,20.4-0.3,25.1"/>
<path id="XMLID_7_" class="st0" d="M76.6,35.1c0,0-0.2,16.5-0.5,36.6"/>
<path id="XMLID_6_" class="st0" d="M72.1,130.3c-6.1-3.1-9.5-8.4-9.9-10.1c-0.3-1.5-0.3-3.1,0-4.6c0.4-2.1,2-3.8,3.9-4.8
	c1.9-1,4-1.5,6.1-1.9"/>
<path id="XMLID_5_" class="st0" d="M77.1,60.6"/>
<path id="XMLID_4_" class="st0" d="M71.9,124.9c-1.8-0.9-3.7-3.1-4.2-4.2c-0.5-1.1-0.5-2.8,0.7-4.1c1-1.1,4-2,5.4-2.4
	c4.6-1.2,8.9-3.3,12.8-6.1c1.6-1.1,3.1-2.4,4.1-4c1.6-2.4,1.6-5.3,1.3-8.2c-0.8-6.8-5.3-13.4-9.1-14.4c-0.5-0.1-1.8,0.3-2.2,0.6
	c-3.2,2.3-7.7,3.8-11.6,4.4c-2.8,0.6-5.6,1.3-8.5,1.9c-0.8,0.2-1.6,0.4-2.4,0.4c-1,0.1-1.9-0.1-2.8-0.3c-0.3-0.1-0.6-0.1-0.9-0.3
	c-0.3-0.3-0.5-0.7-0.6-1.2c-0.4-1.4-1.1-2.7-2-3.8c-0.6-0.8-1.3-1.5-1.6-2.4c-0.6-1.3-0.4-2.9,0.4-4.1c0.7-1.2,1.9-2.2,3.3-2.7
	c0.6-0.2,1.3-0.3,1.9-0.6c5-2,9.8-3.5,15.4-4.3c0.5-0.3,0.2-0.8-0.4-1c-0.3-0.1-0.8-0.1-1.1-0.1c-6,0.1-11.8-3.5-14.5-8.8
	c-0.4-0.8-2-3.5-2-6.4c0.3-4.3,2.3-7.2,2.9-8.3c2.9-5,10.7-8.2,13.2-9.6c1.7-1,14.1-4.2,16.7-4.5c3.9-0.4,6.6-0.5,10.4,1
	c3.1,1.2,5,3.1,6.3,6.1c0.6,1.4,0.4,3.1,0.1,4.7c-0.4,2.2-2,4-3.3,5.8c-1.3,1.8-2.5,4-2.1,6.2c0.1,0.6,0.4,1.3,0.3,1.9
	c-0.9,0.3-1.8-0.4-2.8-0.5c-0.9-0.1-1.7,0.4-2.6,0.4c-0.9,0-1.9-0.9-1.5-1.6c0.7-0.6,1.8-0.6,2.7-0.2c0.9,0.4,1.7,0.9,2.6,1.2
	c1.2,0.4,2.1,0.2,2.9,1.2c1,1.2,1.4,1.7,1.6,3.2c0.1,0.8-0.4,2.7-0.2,3.5c0.3,1.1,0.5,2.6,0.3,3.7c0.5,0.1,0.9-0.7,0.5-1.1
	c-0.5,0.9-1.6,1.5-2.6,1.6c-1.1,0-2.1-0.5-2.7-1.4c-0.4,0.6,0,1.5,0.7,1.7c-0.3-1.5-1.3-2.7-2.7-3.3c-0.6-0.2-1.2-0.3-1.7-0.6
	c-0.5-0.3-1-0.7-1.1-1.3s0.6-1.2,1.1-1c0.6,0.2,0.3,1.3-0.3,1.2c-0.5-0.1-0.5-0.8-0.3-1.3c1.2,0.1,2,1.6,1.4,2.7
	c-1-0.5-1.8-1.3-2.1-2.4c-0.1-0.2-0.1-0.4-0.1-0.5c0.1-0.5,0.8-0.7,1.3-0.5c0.5,0.2,0.8,0.7,1,1.2c1.3,0.2,2.7,0.2,4-0.1
	c1.3-0.3,2.8-0.6,3.6,0.4c0.2-0.4,0.1-0.9-0.3-1.2c-0.2,0.7,0,1.5,0.4,2.1c0.3-1,0.2-2.1-0.3-3c-0.6,0.2-0.5,1-0.3,1.6
	c0.6,1.7,1.1,3.4,1.2,5.2c0,0.2-0.2,0.8-0.3,0.9c-0.1,0.2-0.3,0.3-0.5,0.3c-1,0.4-1.4,0.4-2.5,0.7c-0.4,0.1-1.2,0.3-1.6,0.3
	c-0.8-0.1-2.8-1-3.3-1.7c-1.1-1.3-2.4-1.9-3.9-2.8c-2.5-1.4-3-4.1-2.9-6.9c0-0.9,0.5-2.1,1.4-2c0.5,0,0.9,0.4,0.9,0.9
	c0,0.5-0.3,0.9-0.8,1c-0.4-0.4-0.5-1-0.5-1.5c0-1.3-0.1-2.7,0.2-4c0.5-2.7,2.3-5,4-7.2c0.8-1,1.6-2,2.3-3c0.4-0.6,0.9-1.2,1-1.8
	c-0.1-3.8-10-2.2-14.4-0.5c-3.4,1.2-7.5,3.7-10.5,5.8c-5,3.4-7.5,6.9-6.1,9.7c1.1,1.9,2.7,2.9,4.5,2.8c0,0,7.6-0.3,14.8,2.1
	c0.3,0.1,1.3,0.6,1.2,0.8c-0.1,0.3-1,0.2-1.5,0c-0.7-0.4-3.1-1.7-5.2-1.6c-0.7,0-1.3,0.6-1.4,0.9c-0.2,0.5,0,1.1,0.1,1.7
	c0.7,2.2,0,5.4,0.1,8.1c0.1-3,1.9-7.3,1.4-10.2c-0.4,3.3-1.2,6.9-1,10.2c1.1-3.2,2.6-6.4,2.6-9.9c-0.6,3.4-2.1,4.6-2.1,10.1
	c1.6-3.3,1.8-7,3.2-9.4c0.3,3-1.5,5-1.9,8.4c1.5-2,1.8-5.3,2.7-7.5c0.3-0.7,0.8,2.1-1.5,6.7c1.5-1.8,1.7-4.3,3.2-4.9
	c0.5,1.4-0.5,2.8-1.6,3.8c-1.8,1.7-3.9,3.1-6.1,4.2c-2.3,1.2-4.8,2.4-7.4,2.8c-1.5,0.3-4.3,0.7-7,1c-1.2,0.1-2.6,0-3.8,0.1
	c-0.2,0-0.5,0.1-0.6,0.3c-0.2,0.3,0.1,0.6,0.4,0.7c0.8,0.4,5-0.1,6.2-0.3c3.9-0.5,7.6-1.3,11.1-3c2.8-1.4,5.4-3.3,8-5.2
	c1-0.7,2-1.6,2.1-2.7c0.1-0.9-0.5-1.7-1.1-2.3s-1.3-1.2-1.8-1.9c-0.1-0.2-0.2-0.3-0.2-0.5c0.1-0.5,0.8-0.4,1.3-0.2
	c1.5,0.7,3.1,1.4,4.3,2.4c1.2,1.1,1.6,2.8,2.2,4.3c0.5,1.3-0.2,2.9,0.4,4.2c0.2,0.4,0.5,0.7,0.6,1.2c0.3,0.8,0.1,1.5-0.4,2.2
	c-2,3-5.1,5.9-8.3,8c-3.8,2.4-5.7,0.5-5.6,2.9c0,0.6-0.1,0.3,0,1.3c0.1,1,3,3.3,4.5,4.9c1.3,1.4,2.5,2.9,3.3,4.7
	c0.7,1.8,0.9,3.8,0.2,5.6c-0.3,0.8-0.8,1.5-1.4,2.2c-1.7,2-3.9,3.5-6.3,4.4c-0.3,0.1-0.6-0.1-0.8,0c-0.2,0.1-0.2,0.4-0.1,0.6
	c0,0.1,0.1,0.1,0.1,0.2c0.2,0.1,0.2-0.5,0.2-0.5s0.2-15.4,0.3-23.5c0-0.4-0.3-0.8-0.7-0.9c-0.4-0.1-0.8,0-1.1,0.2
	c-0.1,0.1-0.2,0.2-0.3,0.3c-0.2,0.3-0.2,1-0.2,1.2L73.6,109"/>
<path id="XMLID_3_" class="st0" d="M75.2,131.9c1.3,0.7,4.5,2.7,4.6,3.9c0.1,1.2-0.8,2.4-2.2,2.7c-1,0.3-2.8-0.1-3.8-0.2
	c-3.9-0.4-6.6-1.9-10.5-2.2c-0.8-0.1-2.7,0-3.5,0.3c-0.7,0.2-1.4,0.6-2,1c-1.3,0.9-2.4,2.2-2.6,3.8c0,0.4,0,0.9,0.3,1.2
	c0.3,0.3,0.6,0.2,0.8-0.1c0.3-0.4,0.3-0.7,0.3-1.1c0-0.4,0.2-0.8,0.4-1.1c0.9-1.2,2.4-1.9,3.9-2c1.5-0.1,3,0.3,4.4,0.9
	c1.4,0.6,3.9,1.6,5.3,2.2c2.5,1,5,1.1,7.7,0.8c2.6-0.3,4.3-1.5,5-3.1c0.8-1.6,1.1-3.9-0.6-5.8c-1.9-2.1-4.5-3.1-6.8-4.7"/>
<path id="XMLID_2_" class="st0" d="M102.6,14c-8.8,1.8-17.7,3.5-26.7,4.1c-9,0.6-18.1-0.1-26.6-3.1c-1-0.3-2.1-0.9-2.2-1.9
	c16.7,2.2,33.9,4.4,50.2,0.3c2.7-0.7,5.5-1.6,7.5-3.6c-0.6-1.3-2.3-1.7-3.7-2c-9.5-1.9-19-3.8-28.7-3.7c-9.9,0.2-19.7,2.5-29.3,5.3
	c-1.1,0.3-2.4,1.2-1.8,2.2c0.2,0.4,0.2,0.8,0.9,1.2c3.8,1.6,6.9,2.6,10.3,4c7.6,3.2,16.1,4.1,24.4,3.4c8.3-0.7,16.3-3,24-6.1
	c1,0.5,0.3,2.1-0.5,2.9c-4.7,4.4-11,6.6-17.2,8.7c-2.1,0.7-4.2,1.4-6.4,1.7C74,27.7,69,27.5,65.3,27c-12.9-1.7-18-5.5-25.1-13.2
	c-1-1.1-2.1-2.6-1.7-4.1c0.3-1.4,1.7-2.4,3-3c3.8-1.9,8.1-2.5,12.3-3c17.2-2.1,35-2.8,51.4,2.7c2.3,0.8,4.9,2.2,4.9,4.6
	c0,1.1-0.6,2.1-1.3,3c-3.5,4.7-8.4,8.2-13.8,10.4c-5.4,2.3-11.2,3.3-17,3.8c-1-0.2-2.3-0.2-3.2,0.3c-0.3,0.5,0.1,1.1,0.7,1.3
	c0.5,0.2,1.1,0,1.7-0.1c0,0.8,0,1.6,0.1,2.4"/>
</svg>
